<svg width="26" height="22" viewBox="0 0 26 22" fill="none" xmlns="http://www.w3.org/2000/svg">
<path d="M9.42628 21.5787C9.64671 21.2998 9.77132 20.9218 9.77296 20.527C9.7746 20.1322 9.65315 19.7525 9.43505 19.4706L3.93946 12.4929H24.8541C25.1606 12.4832 25.452 12.3221 25.6661 12.0438C25.8802 11.7656 26 11.3923 26 11.0036C26 10.615 25.8802 10.2417 25.6661 9.96345C25.452 9.68522 25.1606 9.52406 24.8541 9.51436H3.94897L9.44456 2.53662C9.66056 2.25339 9.78057 1.87427 9.77893 1.48032C9.77729 1.08638 9.65413 0.708882 9.43578 0.428556C9.21522 0.152075 8.91707 -0.00206512 8.60688 2.09004e-05C8.2967 0.00210692 7.99986 0.160248 7.78162 0.439681L0.333509 9.94914C0.232208 10.0873 0.150116 10.2462 0.0907236 10.4191C0.0295397 10.6001 -0.00133841 10.7952 4.44782e-05 10.992C-0.000126807 11.3816 0.1198 11.7559 0.334241 12.035L7.78162 21.5444C7.88699 21.6854 8.01349 21.7983 8.15372 21.8765C8.29395 21.9547 8.44508 21.9966 8.59826 21.9998C8.75144 22.003 8.90358 21.9674 9.04576 21.8951C9.18794 21.8228 9.31731 21.7152 9.42628 21.5787Z" fill="white"/>
</svg>
