<svg width="23" height="20" viewBox="0 0 23 20" fill="none" xmlns="http://www.w3.org/2000/svg">
<path d="M14.6612 19.617C14.4662 19.3634 14.356 19.0198 14.3545 18.6609C14.3531 18.302 14.4605 17.9568 14.6534 17.7006L19.5146 11.3572H1.01359C0.742464 11.3484 0.484721 11.2019 0.295356 10.9489C0.105991 10.696 0 10.3566 0 10.0033C0 9.64997 0.105991 9.31063 0.295356 9.05768C0.484721 8.80474 0.742464 8.65823 1.01359 8.64942H19.5062L14.645 2.30602C14.454 2.04853 14.3478 1.70388 14.3492 1.34575C14.3507 0.987617 14.4596 0.644438 14.6528 0.389597C14.8479 0.13825 15.1116 -0.00187738 15.386 1.90004e-05C15.6604 0.00191538 15.923 0.14568 16.116 0.39971L22.7037 9.04467C22.7938 9.17013 22.8668 9.31461 22.9197 9.47195C22.9739 9.63645 23.0012 9.8138 23 9.99277C22.9999 10.3471 22.8936 10.6873 22.7037 10.9409L16.116 19.5858C16.0228 19.714 15.9109 19.8166 15.7869 19.8877C15.6628 19.9588 15.5291 19.9969 15.3936 19.9998C15.2581 20.0027 15.1236 19.9704 14.9978 19.9046C14.872 19.8389 14.7576 19.7411 14.6612 19.617Z" fill="white"/>
</svg>
