<svg width="18" height="12" viewBox="0 0 18 12" fill="none" xmlns="http://www.w3.org/2000/svg">
<path fill-rule="evenodd" clip-rule="evenodd" d="M17.75 6C17.75 5.83424 17.6842 5.67527 17.5669 5.55806C17.4497 5.44085 17.2908 5.375 17.125 5.375L2.38375 5.375L6.3175 1.4425C6.43486 1.32514 6.50079 1.16597 6.50079 1C6.50079 0.834034 6.43486 0.674861 6.3175 0.557503C6.20014 0.440145 6.04097 0.374214 5.875 0.374214C5.70903 0.374214 5.54986 0.440145 5.4325 0.557503L0.432499 5.5575C0.374296 5.61556 0.328117 5.68453 0.29661 5.76046C0.265102 5.83639 0.248882 5.91779 0.248882 6C0.248882 6.08221 0.265102 6.16361 0.29661 6.23955C0.328117 6.31548 0.374296 6.38445 0.432499 6.4425L5.4325 11.4425C5.54986 11.5599 5.70903 11.6258 5.875 11.6258C6.04097 11.6258 6.20014 11.5599 6.3175 11.4425C6.43486 11.3251 6.50079 11.166 6.50079 11C6.50079 10.834 6.43486 10.6749 6.3175 10.5575L2.38375 6.625L17.125 6.625C17.2908 6.625 17.4497 6.55915 17.5669 6.44194C17.6842 6.32473 17.75 6.16576 17.75 6Z" fill="#1C1C1C"/>
</svg>
