<svg width="18" height="12" viewBox="0 0 18 12" fill="none" xmlns="http://www.w3.org/2000/svg">
<path fill-rule="evenodd" clip-rule="evenodd" d="M0.25 6C0.25 5.83424 0.315848 5.67527 0.433058 5.55806C0.550268 5.44085 0.70924 5.375 0.875 5.375L15.6163 5.375L11.6825 1.4425C11.5651 1.32514 11.4992 1.16597 11.4992 1C11.4992 0.834034 11.5651 0.674861 11.6825 0.557503C11.7999 0.440145 11.959 0.374214 12.125 0.374214C12.291 0.374214 12.4501 0.440145 12.5675 0.557503L17.5675 5.5575C17.6257 5.61556 17.6719 5.68453 17.7034 5.76046C17.7349 5.83639 17.7511 5.91779 17.7511 6C17.7511 6.08221 17.7349 6.16361 17.7034 6.23955C17.6719 6.31548 17.6257 6.38445 17.5675 6.4425L12.5675 11.4425C12.4501 11.5599 12.291 11.6258 12.125 11.6258C11.959 11.6258 11.7999 11.5599 11.6825 11.4425C11.5651 11.3251 11.4992 11.166 11.4992 11C11.4992 10.834 11.5651 10.6749 11.6825 10.5575L15.6163 6.625L0.875 6.625C0.70924 6.625 0.550268 6.55915 0.433058 6.44194C0.315848 6.32473 0.25 6.16576 0.25 6Z" fill="#1C1C1C"/>
</svg>
